:FULLY-SPECIFIED
:FORCE-ALL-JOINTS-BE-3DOF
:DEGREES
1529
root -5.6688 15.3463 19.6311 -171.809 2.59392 -179.243
lfemur -49.0521 8.86905 -26.3127
ltibia 89.236 0 0
lfoot -10.3024 19.8406 0.0306071
ltoes -24.768 0 0
rfemur -44.338 -0.563927 16.5326
rtibia 67.1629 0 0
rfoot -19.3931 -7.03293 -0.0126466
rtoes -25.022 0 0
lowerback 19.7551 0.822188 3.71558
upperback -1.25621 2.53632 2.9774
thorax -12.4935 1.12703 0.416248
lowerneck -3.45463 8.72993 4.05449
upperneck 4.01343 12.3112 -10.8769
head 2.6867 6.01476 -3.40394
lclavicle -1.82591e-14 8.53757e-15 9.49962e-32
lhumerus 68.0998 -66.648 37.3531
lradius 121.112 0 0
lwrist 18.4307 0 0
lhand -23.0819 40.36 -5.2228e-05
lfingers 7.12502 0 0
lthumb 3.36407 70.3134 -4.95039e-05
rclavicle -1.82591e-14 8.53757e-15 9.49962e-32
rhumerus -41.4437 48.7633 -81.6806
rradius 110.728 0 0
rwrist -42.0909 0 0
rhand 6.14035 -32.8113 0.103991
rfingers 7.12502 0 0
rthumb 31.4666 -60.2313 0.0780019
1530
root -5.73234 15.3521 19.6552 -171.835 2.62402 -179.293
lfemur -48.8112 8.88129 -26.2353
ltibia 88.9435 0 0
lfoot -10.3354 19.8488 0.030674
ltoes -24.8458 0 0
rfemur -44.4278 -0.651646 16.5034
rtibia 67.2681 0 0
rfoot -19.3435 -7.05402 -0.013953
rtoes -24.8998 0 0
lowerback 19.7396 0.822405 3.65227
upperback -1.25514 2.51824 2.96702
thorax -12.4825 1.12197 0.446146
lowerneck -3.4731 8.65925 3.99587
upperneck 4.02336 12.214 -10.8081
head 2.68683 5.96635 -3.3782
lclavicle -1.8193e-14 8.41732e-15 1.02882e-31
lhumerus 67.1162 -66.6404 38.1341
lradius 120.831 0 0
lwrist 18.4601 0 0
lhand -23.0812 40.3449 -1.91488e-05
lfingers 7.12502 0 0
lthumb 3.36473 70.2983 -1.7618e-05
rclavicle -1.8193e-14 8.41732e-15 1.02882e-31
rhumerus -41.1616 48.7321 -81.4984
rradius 110.702 0 0
rwrist -41.9835 0 0
rhand 6.09274 -32.7649 0.101295
rfingers 7.12502 0 0
rthumb 31.4204 -60.1861 0.0771227
1531
root -5.79588 15.3579 19.6793 -171.867 2.72088 -179.349
lfemur -48.5169 8.89434 -26.1382
ltibia 88.5908 0 0
lfoot -10.3733 19.8624 0.0306175
ltoes -24.9359 0 0
rfemur -44.5377 -0.755212 16.4671
rtibia 67.3872 0 0
rfoot -19.2838 -7.07799 -0.0154309
rtoes -24.7529 0 0
lowerback 19.7215 0.823407 3.57809
upperback -1.254 2.49797 2.95383
thorax -12.4697 1.11641 0.479811
lowerneck -3.49535 8.57531 3.92606
upperneck 4.03552 12.0986 -10.7259
head 2.68726 5.9089 -3.34742
lclavicle -1.81189e-14 8.27025e-15 1.11649e-31
lhumerus 65.9425 -66.6348 39.0603
lradius 120.511 0 0
lwrist 18.5062 0 0
lhand -23.0802 40.3292 2.1514e-05
lfingers 7.12502 0 0
lthumb 3.36564 70.2826 2.1575e-05
rclavicle -1.81189e-14 8.27025e-15 1.11649e-31
rhumerus -40.7895 48.7016 -81.2504
rradius 110.658 0 0
rwrist -41.8417 0 0
rhand 6.02705 -32.7108 0.0976153
rfingers 7.12502 0 0
rthumb 31.3569 -60.1346 0.0757639
1532
root -5.85942 15.3637 19.7034 -171.905 2.8569 -179.411
lfemur -48.17 8.90856 -26.0228
ltibia 88.1769 0 0
lfoot -10.4172 19.8795 0.0305101
ltoes -25.0402 0 0
rfemur -44.6671 -0.876046 16.4242
rtibia 67.5241 0 0
rfoot -19.2137 -7.1056 -0.0171075
rtoes -24.5806 0 0
lowerback 19.7003 0.824833 3.49182
upperback -1.25271 2.47473 2.93811
thorax -12.4551 1.11007 0.518453
lowerneck -3.52135 8.47727 3.84451
upperneck 4.04971 11.9638 -10.6298
head 2.68785 5.84181 -3.31139
lclavicle -1.80339e-14 8.09684e-15 1.21497e-31
lhumerus 64.5698 -66.6225 40.1413
lradius 120.142 0 0
lwrist 18.564 0 0
lhand -23.0791 40.3119 6.97699e-05
lfingers 7.12502 0 0
lthumb 3.36675 70.2652 6.80865e-05
rclavicle -1.80339e-14 8.09684e-15 1.21497e-31
rhumerus -40.3414 48.6674 -80.9492
rradius 110.601 0 0
rwrist -41.6707 0 0
rhand 5.94691 -32.6482 0.0932013
rfingers 7.12502 0 0
rthumb 31.2794 -60.0752 0.0741152
1533
root -5.92296 15.3696 19.7275 -171.948 3.0042 -179.484
lfemur -47.7711 8.92428 -25.8904
ltibia 87.7005 0 0
lfoot -10.468 19.8987 0.0304241
ltoes -25.1608 0 0
rfemur -44.8157 -1.01557 16.3754
rtibia 67.6829 0 0
rfoot -19.133 -7.1376 -0.0190059
rtoes -24.3822 0 0
lowerback 19.6759 0.826319 3.3922
upperback -1.2512 2.44775 2.92012
thorax -12.4381 1.10268 0.563281
lowerneck -3.55108 8.36418 3.75061
upperneck 4.06568 11.8083 -10.5191
head 2.68843 5.76445 -3.26989
lclavicle -1.79354e-14 7.89757e-15 1.32593e-31
lhumerus 62.9911 -66.5938 41.385
lradius 119.714 0 0
lwrist 18.6291 0 0
lhand -23.0778 40.2915 0.000125663
lfingers 7.12502 0 0
lthumb 3.36802 70.2448 0.000121961
rclavicle -1.79354e-14 7.89757e-15 1.32593e-31
rhumerus -39.8313 48.625 -80.6077
rradius 110.538 0 0
rwrist -41.4758 0 0
rhand 5.85592 -32.5757 0.0883009
rfingers 7.12502 0 0
rthumb 31.1914 -60.0064 0.0723688
1534
root -5.9865 15.3754 19.7516 -171.997 3.13503 -179.569
lfemur -47.3212 8.94179 -25.7424
ltibia 87.1605 0 0
lfoot -10.5267 19.9184 0.0304301
ltoes -25.2999 0 0
rfemur -44.9831 -1.17522 16.3213
rtibia 67.8675 0 0
rfoot -19.0414 -7.17474 -0.0211448
rtoes -24.157 0 0
lowerback 19.6479 0.827499 3.27798
upperback -1.24939 2.41627 2.90011
thorax -12.4185 1.09397 0.615505
lowerneck -3.58449 8.23514 3.64377
upperneck 4.08319 11.631 -10.3935
head 2.68883 5.67621 -3.2227
lclavicle -1.78203e-14 7.67293e-15 1.45073e-31
lhumerus 61.2018 -66.5383 42.7965
lradius 119.219 0 0
lwrist 18.6965 0 0
lhand -23.0764 40.2668 0.000189282
lfingers 7.12502 0 0
lthumb 3.36938 70.2202 0.000183286
rclavicle -1.78203e-14 7.67293e-15 1.45073e-31
rhumerus -39.2734 48.5701 -80.2387
rradius 110.474 0 0
rwrist -41.2621 0 0
rhand 5.75767 -32.4924 0.0831626
rfingers 7.12502 0 0
rthumb 31.0963 -59.9267 0.0707189
